<?xml version="1.0" encoding="utf-8"?>
<!-- Generator: Adobe Illustrator 27.2.0, SVG Export Plug-In . SVG Version: 6.00 Build 0)  -->
<svg version="1.1" id="Layer_1" xmlns="http://www.w3.org/2000/svg" xmlns:xlink="http://www.w3.org/1999/xlink" x="0px" y="0px"
	 viewBox="0 0 1669 1884" style="enable-background:new 0 0 1669 1884;" xml:space="preserve">
<style type="text/css">
	.st0{fill:#FFD90D;}
</style>
<g transform="translate(0.000000,1884.000000) scale(0.100000,-0.100000)">
	<path class="st0" d="M7900,16893c-1031-55-1968-297-2875-743c-2080-1023-3561-2976-3979-5250c-76-414-106-733-113-1201
		c-6-399,3-606,38-924c152-1377,694-2683,1564-3770c164-205,346-407,545-605l175-175l3,916l2,916l-81,119
		c-536,790-889,1751-994,2709c-48,443-48,956,0,1384c140,1232,630,2353,1447,3306c143,167,464,486,642,638
		c709,606,1542,1042,2431,1271c895,232,1849,258,2760,75c432-86,936-249,1313-424l102-48v-3938c0-3481-2-3938-15-3933
		c-8,3-1147,1155-2531,2560l-2515,2554h-715h-714V7845V3360l53-34c203-130,664-367,942-485c615-261,1290-444,1935-525
		c356-45,446-50,910-50c465-1,574,4,905,45c1209,148,2374,601,3359,1307c70,51,135,92,144,92c10,0,409-392,887-870l870-870h860h860
		l-1278,1278c-702,702-1277,1281-1277,1285c0,5,59,74,131,155c750,839,1288,1810,1594,2872c337,1174,374,2404,109,3606
		c-262,1193-833,2312-1655,3249c-127,145-467,495-480,495c-5,0-9-408-9-915v-916l88-132c487-727,820-1599,947-2479
		c45-317,58-516,59-888c0-441-25-724-99-1130c-321-1747-1425-3297-2973-4174c-823-467-1702-727-2652-787c-230-15-757-6-965,16
		c-708,73-1356,248-1955,526l-90,42v3358c0,2681,3,3359,13,3359c6-1,1146-1153,2532-2560l2520-2560h713h712v4310
		c0,2885,3,4310,10,4310s9,253,8,752l-3,752l-155,93c-164,98-554,300-730,378c-953,424-1979,640-3010,633
		C8074,16897,7930,16895,7900,16893z"/>
</g>
</svg>
