<svg width="46" height="46" viewBox="0 0 46 46" fill="none" xmlns="http://www.w3.org/2000/svg">
<path d="M6.34654 9.06665C5.34426 9.06665 4.5332 9.87771 4.5332 10.88C4.5332 11.8823 5.34426 12.6933 6.34654 12.6933H38.9865C39.9888 12.6933 40.7999 11.8823 40.7999 10.88C40.7999 9.87771 39.9888 9.06665 38.9865 9.06665H6.34654ZM6.34654 20.8533C5.34426 20.8533 4.5332 21.6644 4.5332 22.6667C4.5332 23.6689 5.34426 24.48 6.34654 24.48H38.9865C39.9888 24.48 40.7999 23.6689 40.7999 22.6667C40.7999 21.6644 39.9888 20.8533 38.9865 20.8533H6.34654ZM6.34654 32.64C5.34426 32.64 4.5332 33.451 4.5332 34.4533C4.5332 35.4556 5.34426 36.2667 6.34654 36.2667H38.9865C39.9888 36.2667 40.7999 35.4556 40.7999 34.4533C40.7999 33.451 39.9888 32.64 38.9865 32.64H6.34654Z" fill="black"/>
</svg>
